<svg width="21" height="20" viewBox="0 0 21 20" fill="none" xmlns="http://www.w3.org/2000/svg">
  <g clip-path="url(#clip0_4214_21064)">
    <path
      d="M10.3457 20C15.8686 20 20.3457 15.5228 20.3457 10C20.3457 4.47715 15.8686 0 10.3457 0C4.82286 0 0.345703 4.47715 0.345703 10C0.345703 15.5228 4.82286 20 10.3457 20Z"
      fill="#F0F0F0"/>
    <path d="M2.41288 3.91016C1.62737 4.93215 1.03507 6.11008 0.690186 7.38973H5.89245L2.41288 3.91016Z"
          fill="#0052B4"/>
    <path d="M20.0015 7.38969C19.6566 6.11008 19.0643 4.93215 18.2788 3.91016L14.7993 7.38969H20.0015Z" fill="#0052B4"/>
    <path d="M0.690186 12.6094C1.03511 13.889 1.62741 15.0669 2.41288 16.0889L5.89234 12.6094H0.690186Z"
          fill="#0052B4"/>
    <path d="M16.4336 2.06649C15.4116 1.28098 14.2338 0.688672 12.9541 0.34375V5.54598L16.4336 2.06649Z"
          fill="#0052B4"/>
    <path d="M4.25732 17.9306C5.27932 18.7161 6.45725 19.3084 7.73686 19.6534V14.4512L4.25732 17.9306Z" fill="#0052B4"/>
    <path d="M7.73682 0.34375C6.45721 0.688672 5.27928 1.28098 4.25732 2.06644L7.73682 5.54593V0.34375Z"
          fill="#0052B4"/>
    <path d="M12.9541 19.6534C14.2337 19.3084 15.4116 18.7161 16.4336 17.9307L12.9541 14.4512V19.6534Z" fill="#0052B4"/>
    <path d="M14.7993 12.6094L18.2788 16.0889C19.0643 15.0669 19.6566 13.889 20.0015 12.6094H14.7993Z" fill="#0052B4"/>
    <path
      d="M20.2611 8.69566H11.6501H11.6501V0.0846484C11.2231 0.0290625 10.7878 0 10.3457 0C9.90355 0 9.46832 0.0290625 9.04137 0.0846484V8.69559V8.69563H0.430352C0.374766 9.12262 0.345703 9.55793 0.345703 10C0.345703 10.4421 0.374766 10.8774 0.430352 11.3043H9.04129H9.04133V19.9154C9.46832 19.9709 9.90355 20 10.3457 20C10.7878 20 11.2231 19.971 11.65 19.9154V11.3044V11.3044H20.2611C20.3166 10.8774 20.3457 10.4421 20.3457 10C20.3457 9.55793 20.3166 9.12262 20.2611 8.69566Z"
      fill="#D80027"/>
    <path
      d="M12.9543 12.6094L17.4167 17.0718C17.6219 16.8666 17.8177 16.6521 18.0045 16.4298L14.1841 12.6094H12.9543V12.6094Z"
      fill="#D80027"/>
    <path
      d="M7.73692 12.6094H7.73684L3.27454 17.0717C3.47969 17.2769 3.69418 17.4727 3.91653 17.6595L7.73692 13.839V12.6094Z"
      fill="#D80027"/>
    <path
      d="M7.7368 7.39019V7.39012L3.27446 2.92773C3.06922 3.13289 2.87344 3.34738 2.68665 3.56973L6.50707 7.39016H7.7368V7.39019Z"
      fill="#D80027"/>
    <path d="M12.9543 7.39199L17.4167 2.92957C17.2116 2.72434 16.9971 2.52855 16.7747 2.3418L12.9543 6.16223V7.39199Z"
          fill="#D80027"/>
  </g>
  <defs>
    <clipPath id="clip0_4214_21064">
      <rect width="20" height="20" fill="white" transform="translate(0.345703)"/>
    </clipPath>
  </defs>
</svg>
