<svg width="21" height="20" viewBox="0 0 21 20" fill="none" xmlns="http://www.w3.org/2000/svg">
  <g clip-path="url(#clip0_4214_21054)">
    <path
      d="M10.3457 20C15.8686 20 20.3457 15.5228 20.3457 10C20.3457 4.47715 15.8686 0 10.3457 0C4.82286 0 0.345703 4.47715 0.345703 10C0.345703 15.5228 4.82286 20 10.3457 20Z"
      fill="#A6A6A6"/>
    <path
      d="M19.724 13.478C20.1259 12.3946 20.3459 11.2229 20.3459 9.99973C20.3459 8.77652 20.1259 7.6048 19.724 6.52148H0.967939C0.565986 7.6048 0.345947 8.77652 0.345947 9.99973C0.345947 11.2229 0.565986 12.3946 0.967939 13.478L10.3459 14.3475L19.724 13.478Z"
      fill="#A6A6A6"/>
    <path
      d="M10.346 20.0003C14.6457 20.0003 18.3111 17.2865 19.724 13.4785H0.968018C2.38095 17.2865 6.04638 20.0003 10.346 20.0003Z"
      fill="#A6A6A6"/>
  </g>
  <defs>
    <clipPath id="clip0_4214_21054">
      <rect width="20" height="20" fill="white" transform="translate(0.345703)"/>
    </clipPath>
  </defs>
</svg>
