<svg width="44" height="43" viewBox="0 0 44 43" fill="none" xmlns="http://www.w3.org/2000/svg">
<path d="M26.9297 40.7509C23.931 43.7497 19.069 43.7497 16.0703 40.7509L2.24908 26.9297C-0.749691 23.931 -0.749692 19.069 2.24907 16.0703L16.0703 2.24908C19.069 -0.749691 23.931 -0.749692 26.9297 2.24907L40.7509 16.0703C43.7497 19.069 43.7497 23.931 40.7509 26.9297L26.9297 40.7509Z" fill="#0066FF"/>
<path opacity="0.6" fill-rule="evenodd" clip-rule="evenodd" d="M43.0447 21.5274C43.0517 19.5531 42.302 17.5766 40.7957 16.0703L26.9745 2.24907C23.9757 -0.749692 19.1138 -0.749691 16.115 2.24908L2.29384 16.0703C0.0433791 18.3207 -0.518192 21.6205 0.609123 24.3947C2.70601 24.653 4.94624 23.7835 6.1883 21.4962L7.09347 19.8293C9.32646 15.7171 15.1029 15.3843 17.7934 19.2128L18.8347 20.6946C21.0058 23.784 25.6523 23.5675 27.5268 20.2896C28.8287 18.0128 32.0479 17.8418 33.5838 19.9678L34.6808 21.4863C36.9057 24.566 41.1356 24.1134 43.0447 21.5274Z" fill="#55D6FF"/>
<path d="M23.4009 26.4152C20.3628 26.4144 17.9001 23.9513 17.9001 20.913C17.9001 17.8742 20.3636 15.4107 23.4024 15.4107L23.4024 9.80469C17.2674 9.80469 12.2941 14.778 12.2941 20.913C12.2941 27.0475 17.2667 32.0206 23.4011 32.0213C23.4015 32.0213 23.4019 32.0213 23.4024 32.0213L28.9543 32.0188V20.3954L23.4009 20.3954V26.4152Z" fill="white"/>
</svg>
